<svg width="2400" height="1080" viewBox="0 0 2400 1080" xmlns="http://www.w3.org/2000/svg">
<defs><style>text{font-family:"Microsoft YaHei","SimHei",sans-serif}</style></defs>

<rect width="2400" height="1080" fill="#e8e2d5"/>
<g stroke="#c6c0b4" stroke-width="0.5">
<line x1="120" y1="80" x2="120" y2="1000"/><line x1="240" y1="80" x2="240" y2="1000"/>
<line x1="360" y1="80" x2="360" y2="1000"/><line x1="480" y1="80" x2="480" y2="1000"/>
<line x1="600" y1="80" x2="600" y2="1000"/><line x1="720" y1="80" x2="720" y2="1000"/>
<line x1="840" y1="80" x2="840" y2="1000"/><line x1="960" y1="80" x2="960" y2="1000"/>
<line x1="1080" y1="80" x2="1080" y2="1000"/><line x1="1200" y1="80" x2="1200" y2="1000"/>
<line x1="1320" y1="80" x2="1320" y2="1000"/><line x1="1440" y1="80" x2="1440" y2="1000"/>
<line x1="1560" y1="80" x2="1560" y2="1000"/><line x1="1680" y1="80" x2="1680" y2="1000"/>
<line x1="1800" y1="80" x2="1800" y2="1000"/><line x1="1920" y1="80" x2="1920" y2="1000"/>
<line x1="2040" y1="80" x2="2040" y2="1000"/><line x1="2160" y1="80" x2="2160" y2="1000"/>
<line x1="2280" y1="80" x2="2280" y2="1000"/>
<line x1="120" y1="80" x2="2280" y2="80"/><line x1="120" y1="160" x2="2280" y2="160"/>
<line x1="120" y1="240" x2="2280" y2="240"/><line x1="120" y1="320" x2="2280" y2="320"/>
<line x1="120" y1="400" x2="2280" y2="400"/><line x1="120" y1="480" x2="2280" y2="480"/>
<line x1="120" y1="560" x2="2280" y2="560"/><line x1="120" y1="640" x2="2280" y2="640"/>
<line x1="120" y1="720" x2="2280" y2="720"/><line x1="120" y1="800" x2="2280" y2="800"/>
<line x1="120" y1="880" x2="2280" y2="880"/><line x1="120" y1="960" x2="2280" y2="960"/>
</g>

<text x="1200" y="72" text-anchor="middle" font-size="22" font-weight="bold" fill="#3a3530" font-family="KaiTi,STKaiti,serif">初始快照 — 待命</text>
<text x="1200" y="96" text-anchor="middle" font-size="13" fill="#888888">系统稳态基准线 · 请求到来前的各组件状态</text>

<!-- ===== H4 ===== -->
<rect x="240" y="160" width="1920" height="140" fill="#f3f1f7" opacity="0.3" rx="4"/>
<rect x="160" y="160" width="72" height="140" fill="#9B8BAB" rx="4"/>
<text x="196" y="240" text-anchor="middle" font-size="16" font-weight="bold" fill="#ffffff" transform="rotate(-90,196,240)">H4</text>

<rect x="320" y="190" width="800" height="80" fill="#ffffff" stroke="#aaa" stroke-width="1.5" rx="8"/>
<text x="720" y="224" text-anchor="middle" font-size="14" fill="#aaaaaa">输入框：空白</text>
<text x="720" y="250" text-anchor="middle" font-size="12" fill="#cccccc">等待用户输入</text>

<rect x="1200" y="190" width="800" height="80" fill="#f8f8f8" stroke="#aaa" stroke-width="1" rx="8"/>
<text x="1600" y="238" text-anchor="middle" font-size="13" fill="#bbbbbb">响应区：空</text>

<!-- ===== H3 ===== -->
<rect x="240" y="320" width="1920" height="360" fill="#e8f2e8" opacity="0.3" rx="4"/>
<rect x="160" y="320" width="72" height="360" fill="#5B9B6B" rx="4"/>
<text x="196" y="512" text-anchor="middle" font-size="16" font-weight="bold" fill="#ffffff" transform="rotate(-90,196,512)">H3</text>

<rect x="320" y="350" width="520" height="100" fill="#ffffff" stroke="#5B9B6B" stroke-width="1.5" rx="8"/>
<text x="580" y="388" text-anchor="middle" font-size="15" font-weight="bold" fill="#5B9B6B">HAProxy+VIP</text>
<text x="580" y="416" text-anchor="middle" font-size="12" fill="#666666">监听 :32400 · 连接数: 0</text>

<rect x="920" y="350" width="520" height="100" fill="#ffffff" stroke="#5B9B6B" stroke-width="1.5" rx="8"/>
<text x="1180" y="388" text-anchor="middle" font-size="15" font-weight="bold" fill="#5B9B6B">LiteLLM Pod ×2</text>
<text x="1180" y="416" text-anchor="middle" font-size="12" fill="#666666">空闲 · 路由表已加载</text>

<rect x="1520" y="350" width="520" height="100" fill="#ffffff" stroke="#5B9B6B" stroke-width="1.5" rx="8"/>
<text x="1780" y="388" text-anchor="middle" font-size="15" font-weight="bold" fill="#5B9B6B">header_proxy ×6</text>
<text x="1780" y="416" text-anchor="middle" font-size="12" fill="#666666">监听933x · 无活跃转发</text>

<!-- 路由表 -->
<rect x="320" y="470" width="1720" height="180" fill="#ffffff" stroke="#5B9B6B" stroke-width="1" stroke-dasharray="6,3" rx="6"/>
<text x="1180" y="502" text-anchor="middle" font-size="14" font-weight="bold" fill="#5B9B6B">路由表（已就绪）</text>
<text x="450" y="536" text-anchor="middle" font-size="12" fill="#666666">GLM-V5.1 →</text>
<text x="720" y="536" text-anchor="middle" font-size="11" fill="#555555">HIS AITeam (w:26)</text>
<text x="1000" y="536" text-anchor="middle" font-size="11" fill="#555555">上海绿区A3 (w:50)</text>
<text x="1280" y="536" text-anchor="middle" font-size="11" fill="#555555">西安绿区A3 (w:20)</text>
<text x="1560" y="536" text-anchor="middle" font-size="11" fill="#555555">苏州A2 (w:20)</text>
<text x="1180" y="568" text-anchor="middle" font-size="11" fill="#777777">策略：simple-shuffle · 全部 healthy · max_parallel_requests 未达上限</text>

<!-- ===== H2 ===== -->
<rect x="240" y="700" width="1920" height="160" fill="#f5ede5" opacity="0.3" rx="4"/>
<rect x="160" y="700" width="72" height="160" fill="#B08050" rx="4"/>
<text x="196" y="788" text-anchor="middle" font-size="16" font-weight="bold" fill="#ffffff" transform="rotate(-90,196,788)">H2</text>

<rect x="320" y="730" width="880" height="80" fill="#ffffff" stroke="#B08050" stroke-width="1.5" rx="8"/>
<text x="760" y="764" text-anchor="middle" font-size="15" font-weight="bold" fill="#B08050">vLLM引擎 ×N</text>
<text x="760" y="792" text-anchor="middle" font-size="12" fill="#666666">模型权重已加载GPU显存 · 空闲等待请求</text>

<rect x="1280" y="730" width="720" height="80" fill="#ffffff" stroke="#B08050" stroke-width="1" stroke-dasharray="6,3" rx="8"/>
<text x="1640" y="766" text-anchor="middle" font-size="13" fill="#B08050">横切资源：GLM-V5.1权重</text>
<text x="1640" y="790" text-anchor="middle" font-size="11" fill="#886655">常驻GPU显存，不随请求装卸</text>

<!-- ===== H1 ===== -->
<rect x="240" y="880" width="1920" height="120" fill="#f3ebe0" opacity="0.3" rx="4"/>
<rect x="160" y="880" width="72" height="120" fill="#9B8565" rx="4"/>
<text x="196" y="948" text-anchor="middle" font-size="16" font-weight="bold" fill="#ffffff" transform="rotate(-90,196,948)">H1</text>

<rect x="320" y="900" width="1720" height="80" fill="#ffffff" stroke="#9B8565" stroke-width="1.5" rx="8"/>
<text x="1180" y="946" text-anchor="middle" font-size="14" fill="#9B8565">GPU集群就绪 · 显存已占用（模型权重） · 计算单元空闲 · KV Cache: 0%</text>

</svg>
